<svg width="16" height="16" viewBox="0 0 16 16" fill="none" xmlns="http://www.w3.org/2000/svg">
<path d="M11.7714 11.1045L8.94269 13.9331C8.81898 14.057 8.67209 14.1552 8.5104 14.2222C8.3487 14.2892 8.17539 14.3237 8.00036 14.3237C7.82532 14.3237 7.65201 14.2892 7.49032 14.2222C7.32862 14.1552 7.18173 14.057 7.05802 13.9331L4.22869 11.1045C3.48284 10.3586 2.97491 9.40827 2.76915 8.37371C2.56338 7.33916 2.66902 6.26681 3.07269 5.29229C3.47637 4.31777 4.15995 3.48483 5.03701 2.89881C5.91407 2.31279 6.9452 2 8.00002 2C9.05485 2 10.086 2.31279 10.963 2.89881C11.8401 3.48483 12.5237 4.31777 12.9274 5.29229C13.331 6.26681 13.4367 7.33916 13.2309 8.37371C13.0251 9.40827 12.5172 10.3586 11.7714 11.1045V11.1045Z" stroke="#4A4E5A" stroke-width="1.5" stroke-linecap="round" stroke-linejoin="round"/>
<path d="M9.41421 8.7482C9.78929 8.37313 10 7.86442 10 7.33398C10 6.80355 9.78929 6.29484 9.41421 5.91977C9.03914 5.5447 8.53043 5.33398 8 5.33398C7.46957 5.33398 6.96086 5.5447 6.58579 5.91977C6.21071 6.29484 6 6.80355 6 7.33398C6 7.86442 6.21071 8.37313 6.58579 8.7482C6.96086 9.12327 7.46957 9.33398 8 9.33398C8.53043 9.33398 9.03914 9.12327 9.41421 8.7482Z" stroke="#4A4E5A" stroke-width="1.5" stroke-linecap="round" stroke-linejoin="round"/>
</svg>
